<?xml version="1.0" encoding="utf-8"?>
<!-- Generator: Adobe Illustrator 19.2.1, SVG Export Plug-In . SVG Version: 6.00 Build 0)  -->
<svg version="1.1" id="Layer_1" xmlns="http://www.w3.org/2000/svg" xmlns:xlink="http://www.w3.org/1999/xlink" x="0px" y="0px"
	 viewBox="0 0 153.8 159" style="enable-background:new 0 0 153.8 159;" xml:space="preserve">
<style type="text/css">
	.st0{fill:none;stroke:#000000;stroke-miterlimit:10;}
	.st1{fill:#FFFFFF;}
	.st2{fill:#FFFFFF;stroke:#FFFFFF;stroke-miterlimit:10;}
</style>
<g>
	<g>
		<path class="st1" d="M76.9,150.2c-0.6,0-1.2-0.1-1.7-0.4l-58.9-33c-1.4-0.8-2.1-2.4-1.7-3.9l17.6-70.4C37.6,22.6,56,8.8,76.9,8.8
			c20.9,0,39.3,13.8,44.7,33.5l17.6,68.9c0.4,1.5-0.3,3.1-1.6,3.9l-58.9,34.5C78.1,150,77.5,150.2,76.9,150.2z M22.1,112l54.8,30.7
			l54.9-32.2l-16.9-66.3c-4.5-16.6-20.1-28.3-37.9-28.3c-17.8,0-33.4,11.7-37.9,28.3L22.1,112z"/>
	</g>
	<g>
		<path class="st1" d="M55.1,53.1V81c0,1.1,0.9,2,2,2c0.5,0,0.9-0.2,1.3-0.5l0.3-0.3L91,50.1c1.7-1.7,4.4-1.7,6.1,0
			c1.7,1.7,1.7,4.4,0,6.1L53.9,99.4c-1.2,1.2-3.1,1.6-4.7,0.9c-1.6-0.7-2.7-2.2-2.7-4V53.1c0-2.4,1.9-4.3,4.3-4.3
			C53.2,48.8,55.1,50.7,55.1,53.1z"/>
	</g>
	<g>
		<path class="st1" d="M102.7,101.1H74.8c-1.1,0-2-0.9-2-2c0-0.5,0.2-0.9,0.5-1.3l0.3-0.3l32.2-32.2c1.7-1.7,1.7-4.4,0-6.1
			c-1.7-1.7-4.4-1.7-6.1,0l-43.2,43.2c-1.3,1.2-1.6,3.1-0.9,4.7c0.7,1.6,2.3,2.7,4,2.7h43.2c2.4,0,4.3-1.9,4.3-4.3
			S105.1,101.1,102.7,101.1z"/>
	</g>
	<g>
		<path class="st1" d="M84.6,123.3H68.9c-1.9,0-3.5-1.6-3.5-3.5c0-1.9,1.6-3.5,3.5-3.5h15.6c1.9,0,3.5,1.6,3.5,3.5
			C88,121.7,86.5,123.3,84.6,123.3z"/>
	</g>
</g>
</svg>
