<?xml version="1.0" encoding="utf-8"?>
<!-- Generator: Adobe Illustrator 19.2.1, SVG Export Plug-In . SVG Version: 6.00 Build 0)  -->
<svg version="1.1" id="Layer_1" xmlns="http://www.w3.org/2000/svg" xmlns:xlink="http://www.w3.org/1999/xlink" x="0px" y="0px"
	 viewBox="0 0 273.9 193.7" style="enable-background:new 0 0 273.9 193.7;" xml:space="preserve">
<style type="text/css">
	.st0{fill:#FFFFFF;}
	.st1{fill:#FFFFFF;stroke:#FFFFFF;stroke-miterlimit:10;}
</style>
<g>
	<g>
		<g>
			<path class="st0" d="M137,145.5c-0.6,0-1.2-0.1-1.7-0.4l-58.9-33c-1.4-0.8-2.1-2.4-1.7-3.9l17.6-70.4
				C97.8,17.9,116.1,4.2,137,4.2c20.9,0,39.3,13.8,44.7,33.5l17.6,68.9c0.4,1.5-0.3,3.1-1.6,3.9L138.8,145
				C138.2,145.3,137.6,145.5,137,145.5z M82.2,107.3L137,138l54.9-32.2l-16.9-66.3c-4.5-16.6-20.1-28.3-37.9-28.3
				c-17.8,0-33.4,11.7-37.9,28.3L82.2,107.3z"/>
		</g>
	</g>
	<g>
		<g>
			<path class="st0" d="M115.3,48.4v27.9c0,1.1,0.9,2,2,2c0.5,0,0.9-0.2,1.3-0.5l0.3-0.3l32.2-32.2c1.7-1.7,4.4-1.7,6.1,0
				c1.7,1.7,1.7,4.4,0,6.1L114,94.7c-1.2,1.2-3.1,1.6-4.7,0.9c-1.6-0.7-2.7-2.2-2.7-4V48.4c0-2.4,1.9-4.3,4.3-4.3
				C113.3,44.1,115.3,46,115.3,48.4z"/>
		</g>
	</g>
	<g>
		<g>
			<path class="st0" d="M162.8,96.4h-27.9c-1.1,0-2-0.9-2-2c0-0.5,0.2-0.9,0.5-1.3l0.3-0.3l32.2-32.2c1.7-1.7,1.7-4.4,0-6.1
				c-1.7-1.7-4.4-1.7-6.1,0l-43.2,43.2c-1.3,1.2-1.6,3.1-0.9,4.7c0.7,1.6,2.3,2.7,4,2.7h43.2c2.4,0,4.3-1.9,4.3-4.3
				C167.1,98.3,165.2,96.4,162.8,96.4z"/>
		</g>
	</g>
	<g>
		<g>
			<path class="st0" d="M144.7,118.6h-15.6c-1.9,0-3.5-1.6-3.5-3.5c0-1.9,1.6-3.5,3.5-3.5h15.6c1.9,0,3.5,1.6,3.5,3.5
				C148.2,117,146.6,118.6,144.7,118.6z"/>
		</g>
	</g>
	<g>
		<path class="st0" d="M57,166h-4.4v-1.6h-5.8c-0.2,0-0.3,0-0.3,0.1c0,0.1,0,0.2,0,0.3v4.4c0,0.2,0,0.3,0.1,0.4
			c0,0.1,0.1,0.1,0.3,0.1h8.4L57,173H45.2c-0.5,0-0.9-0.1-1.3-0.4c-0.4-0.2-0.7-0.5-1-0.9c-0.3-0.4-0.5-0.8-0.7-1.2
			c-0.2-0.4-0.2-0.9-0.2-1.3v-4.3c0-0.4,0.1-0.9,0.2-1.3c0.2-0.5,0.4-0.9,0.7-1.2c0.3-0.4,0.6-0.7,1-0.9c0.4-0.2,0.8-0.4,1.3-0.4H57
			V166z"/>
	</g>
	<g>
		<path class="st0" d="M59.2,161.1h4.4v8.2c0,0.1,0,0.2,0.1,0.3c0,0.1,0.1,0.1,0.3,0.1h8.4l1.9,3.3H62.4c-0.5,0-0.9-0.1-1.3-0.4
			c-0.4-0.2-0.7-0.5-1-0.9c-0.3-0.4-0.5-0.8-0.7-1.2c-0.2-0.4-0.2-0.9-0.2-1.3V161.1z"/>
	</g>
	<g>
		<path class="st0" d="M87,161.1l7.1,11.9h-4.8l-1.7-2.7l-1.8,2.7H75.6l7.3-11.9H87z M83.6,156.8h4.3l-1.6,3.3H82L83.6,156.8z
			 M82.6,169.7h4.6L85,166L82.6,169.7z"/>
	</g>
	<g>
		<path class="st0" d="M106.5,161.1h4.4v8.1c0,0.4-0.1,0.9-0.2,1.3c-0.1,0.4-0.4,0.9-0.6,1.2c-0.3,0.4-0.6,0.7-1,0.9
			c-0.4,0.2-0.8,0.4-1.3,0.4h-8.6c-0.5,0-0.9-0.1-1.3-0.4c-0.4-0.2-0.7-0.5-1-0.9c-0.3-0.4-0.5-0.8-0.7-1.2
			c-0.2-0.4-0.2-0.9-0.2-1.3v-8.1h4.4v8.2c0,0.1,0,0.2,0,0.3c0,0.1,0.1,0.1,0.3,0.1h5.5c0.2,0,0.3,0,0.3-0.1c0-0.1,0-0.2,0-0.3v-0.1
			V161.1z"/>
	</g>
	<g>
		<path class="st0" d="M113,173v-8.6h1.8l-1.8-3.3h11.8c0.5,0,0.9,0.1,1.3,0.4c0.4,0.2,0.7,0.5,1,0.9c0.3,0.4,0.5,0.8,0.6,1.2
			c0.1,0.5,0.2,0.9,0.2,1.3v4.3c0,0.4-0.1,0.9-0.2,1.3c-0.1,0.4-0.4,0.9-0.6,1.2c-0.3,0.4-0.6,0.7-1,0.9c-0.4,0.2-0.8,0.4-1.3,0.4
			H113z M123.3,164.4h-5.8v5.3h5.8c0.2,0,0.3,0,0.3-0.1c0-0.1,0-0.2,0-0.3V165c0-0.2,0-0.3-0.1-0.4
			C123.6,164.5,123.5,164.4,123.3,164.4z"/>
	</g>
	<g>
		<path class="st0" d="M130.2,169.7h4.2v-5.3h-4.2v-3.3h12.6l-1.9,3.3h-2.3v5.3h4.2v3.3h-12.6V169.7z"/>
	</g>
	<g>
		<path class="st0" d="M144.9,169.2v-4.3c0-0.4,0.1-0.9,0.2-1.3c0.2-0.5,0.4-0.9,0.7-1.2c0.3-0.4,0.6-0.7,1-0.9
			c0.4-0.2,0.8-0.4,1.3-0.4h9.4c0.5,0,0.9,0.1,1.3,0.4c0.4,0.2,0.7,0.5,1,0.9c0.3,0.4,0.5,0.8,0.7,1.2c0.2,0.4,0.2,0.9,0.2,1.3v4.3
			c0,0.4-0.1,0.9-0.2,1.3c-0.2,0.5-0.4,0.9-0.7,1.2c-0.3,0.4-0.6,0.7-1,0.9c-0.4,0.2-0.8,0.4-1.3,0.4h-9.4c-0.5,0-0.9-0.1-1.3-0.4
			c-0.4-0.2-0.7-0.5-1-0.9c-0.3-0.4-0.5-0.8-0.7-1.2C145,170.1,144.9,169.7,144.9,169.2z M156,164.4h-6.4c-0.1,0-0.2,0-0.2,0.1
			c0,0.1,0,0.2-0.1,0.4v4.4c0,0.1,0,0.2,0,0.3c0,0.1,0.1,0.1,0.3,0.1h6.4c0.1,0,0.2,0,0.3-0.1c0-0.1,0-0.2,0-0.3V165
			c0-0.2,0-0.3-0.1-0.4C156.3,164.5,156.2,164.4,156,164.4z"/>
	</g>
	<g>
		<path class="st0" d="M162.9,161.1h4.4v8.2c0,0.1,0,0.2,0.1,0.3c0,0.1,0.1,0.1,0.3,0.1h8.4l1.9,3.3h-11.8c-0.5,0-0.9-0.1-1.3-0.4
			c-0.4-0.2-0.7-0.5-1-0.9c-0.3-0.4-0.5-0.8-0.7-1.2c-0.2-0.4-0.2-0.9-0.2-1.3V161.1z"/>
	</g>
	<g>
		<path class="st0" d="M189.6,168.7l-5.5,0v1h10.6v3.3h-15v-11.9h15v3.3h-10.6v1h7.3L189.6,168.7z"/>
	</g>
	<g>
		<path class="st0" d="M196.5,173l7.3-11.9h4.1L215,173h-4.8l-1.7-2.7l-1.8,2.7H196.5z M210,160.1h-5.2l-0.6-1.7l-0.6,1.7h-3.2
			l1.2-3.3h5.1l0.6,1.7l0.6-1.7h3.1L210,160.1z M205.6,166l-2.2,3.7h4.6L205.6,166z"/>
	</g>
	<g>
		<path class="st0" d="M216,169.2v-4.3c0-0.4,0.1-0.9,0.2-1.3c0.2-0.5,0.4-0.9,0.7-1.2c0.3-0.4,0.6-0.7,1-0.9
			c0.4-0.2,0.8-0.4,1.3-0.4h9.4c0.5,0,0.9,0.1,1.3,0.4c0.4,0.2,0.7,0.5,1,0.9c0.3,0.4,0.5,0.8,0.7,1.2c0.2,0.4,0.2,0.9,0.2,1.3v4.3
			c0,0.4-0.1,0.9-0.2,1.3c-0.2,0.5-0.4,0.9-0.7,1.2c-0.3,0.4-0.6,0.7-1,0.9c-0.4,0.2-0.8,0.4-1.3,0.4h-9.4c-0.5,0-0.9-0.1-1.3-0.4
			c-0.4-0.2-0.7-0.5-1-0.9c-0.3-0.4-0.5-0.8-0.7-1.2C216.1,170.1,216,169.7,216,169.2z M227.1,164.4h-6.4c-0.1,0-0.2,0-0.2,0.1
			c0,0.1,0,0.2-0.1,0.4v4.4c0,0.1,0,0.2,0,0.3c0,0.1,0.1,0.1,0.3,0.1h6.4c0.1,0,0.2,0,0.3-0.1c0-0.1,0-0.2,0-0.3V165
			c0-0.2,0-0.3-0.1-0.4C227.4,164.5,227.3,164.4,227.1,164.4z"/>
	</g>
	<g>
		<path class="st0" d="M81,183.4c-0.2-0.8-0.7-1.1-1.5-1.1c-0.6,0-1.1,0.3-1.5,0.8c-0.4,0.6-0.7,1.4-0.7,2.4c0,1.2,0.7,1.8,1.6,1.8
			c0.7,0,1.4-0.3,1.7-1.2H79l0.4-1.9h4.1l-1.1,5.1h-2.1l0.2-0.8c-0.6,0.7-1.3,1-2.3,1c-2,0-3.5-1.4-3.5-3.8c0-1.6,0.5-3.1,1.6-4.1
			c0.9-0.9,2.1-1.3,3.6-1.3c1.8,0,3.1,0.7,3.7,2.3L81,183.4z"/>
	</g>
	<g>
		<path class="st0" d="M88.7,189.3l-1-3.2h-0.9l-0.7,3.2h-2.5l2-8.9h3.4c1.3,0,2,0.2,2.6,0.4c0.7,0.4,1.1,1.1,1.1,2
			c0,1.5-1,2.6-2.5,2.9l1.4,3.6H88.7z M88.3,184.2c0.5,0,0.9,0,1.2-0.2c0.3-0.2,0.5-0.5,0.5-0.9c0-0.3-0.1-0.5-0.3-0.6
			c-0.3-0.1-0.5-0.2-1.1-0.2h-0.9l-0.4,1.8H88.3z"/>
	</g>
	<g>
		<path class="st0" d="M98,189.3l-0.2-1.5H95l-0.8,1.5h-2.8l5-8.9h3.1l1.3,8.9H98z M97.7,185.9c-0.1-1.1-0.2-2.2-0.3-3.3
			c-0.5,1-0.8,1.8-1.6,3.3H97.7z"/>
	</g>
	<g>
		<path class="st0" d="M101.2,189.3l2-8.9h3.6c1.1,0,2,0.2,2.6,0.5c0.6,0.4,1,1.1,1,1.9c0,1.2-0.5,2.4-1.4,3c-0.7,0.5-1.7,0.6-3,0.6
			h-1.5l-0.6,2.8H101.2z M105.8,184.5c0.6,0,1,0,1.3-0.2c0.4-0.2,0.6-0.6,0.6-1c0-0.3-0.1-0.6-0.4-0.7c-0.2-0.1-0.6-0.2-1.1-0.2
			h-0.9l-0.5,2.1H105.8z"/>
	</g>
	<g>
		<path class="st0" d="M115.2,189.3l0.8-3.5h-2.8l-0.8,3.5h-2.6l2-8.9h2.6l-0.7,3.2h2.8l0.7-3.2h2.6l-2,8.9H115.2z"/>
	</g>
	<g>
		<path class="st0" d="M121.6,189.3h-2.6l2-8.9h2.6L121.6,189.3z"/>
	</g>
	<g>
		<path class="st0" d="M129.6,183.5c-0.2-0.7-0.6-1.1-1.3-1.1c-0.6,0-1.1,0.3-1.5,0.8c-0.4,0.5-0.7,1.4-0.7,2.2
			c0,1.3,0.7,1.9,1.6,1.9c0.8,0,1.3-0.4,1.6-1.2l2.2,1.1c-0.9,1.5-2.1,2.2-4.1,2.2c-2.4,0-4-1.5-4-4c0-1.5,0.5-2.9,1.4-3.9
			c0.9-0.9,2.1-1.5,3.6-1.5c1,0,1.9,0.3,2.5,0.7c0.5,0.4,0.9,0.9,1.1,1.5L129.6,183.5z"/>
	</g>
	<g>
		<path class="st0" d="M136.9,180.4h3c1.3,0,2.2,0.2,2.8,0.5c0.8,0.5,1.4,1.5,1.4,2.8c0,1.3-0.4,2.7-1.1,3.8
			c-0.5,0.7-1.3,1.3-2.2,1.5c-0.7,0.2-1.4,0.2-2.8,0.2h-2.9L136.9,180.4z M138.6,187.2c1,0,1.7-0.1,2.2-0.9c0.4-0.6,0.6-1.4,0.6-2.2
			c0-0.7-0.2-1.1-0.5-1.3c-0.3-0.2-0.6-0.3-1.2-0.3H139l-1.1,4.7H138.6z"/>
	</g>
	<g>
		<path class="st0" d="M143.9,189.3l2-8.9h6.6l-0.4,2h-4l-0.3,1.3h3.8l-0.4,2h-3.8l-0.3,1.5h4.4l-0.4,2H143.9z"/>
	</g>
	<g>
		<path class="st0" d="M153.7,186.3c0.6,0.8,1.3,1.1,2.1,1.1c0.8,0,1.1-0.3,1.1-0.6c0-0.3-0.2-0.5-0.9-0.8l-1.1-0.5
			c-1.4-0.5-2.1-1.3-2.1-2.5c0-1.7,1.5-2.8,3.9-2.8c1.5,0,2.8,0.5,3.7,1.6l-2,1.4c-0.5-0.7-1.1-0.9-1.9-0.9c-0.7,0-1,0.3-1,0.6
			c0,0.3,0.2,0.5,0.9,0.7l1.2,0.4c1.5,0.6,2.1,1.4,2.1,2.5c0,1.9-1.5,3.1-4,3.1c-1.5,0-2.9-0.5-4-1.8L153.7,186.3z"/>
	</g>
	<g>
		<path class="st0" d="M162.5,189.3h-2.6l2-8.9h2.6L162.5,189.3z"/>
	</g>
	<g>
		<path class="st0" d="M170.8,183.4c-0.2-0.8-0.7-1.1-1.5-1.1c-0.6,0-1.1,0.3-1.5,0.8c-0.4,0.6-0.7,1.4-0.7,2.4
			c0,1.2,0.7,1.8,1.6,1.8c0.7,0,1.4-0.3,1.7-1.2h-1.6l0.4-1.9h4.1l-1.1,5.1H170l0.2-0.8c-0.6,0.7-1.3,1-2.3,1c-2,0-3.5-1.4-3.5-3.8
			c0-1.6,0.5-3.1,1.6-4.1c0.9-0.9,2.1-1.3,3.6-1.3c1.8,0,3.1,0.7,3.7,2.3L170.8,183.4z"/>
	</g>
	<g>
		<path class="st0" d="M178.4,189.3c-0.6-2.3-1.1-3.6-1.6-5.5c-0.3,1.5-0.5,2.4-1.1,5.5h-2.5l2-8.9h3c0.6,1.9,1.1,3.7,1.6,5.7
			c0.3-1.6,0.7-3.3,1.2-5.7h2.5l-2,8.9H178.4z"/>
	</g>
	<g>
		<path class="st0" d="M182.5,189.3l2-8.9h6.6l-0.4,2h-4l-0.3,1.3h3.8l-0.4,2h-3.8l-0.3,1.5h4.4l-0.4,2H182.5z"/>
	</g>
	<g>
		<path class="st0" d="M195.5,189.3l-1-3.2h-0.9l-0.7,3.2h-2.5l2-8.9h3.4c1.3,0,2,0.2,2.6,0.4c0.7,0.4,1.1,1.1,1.1,2
			c0,1.5-1,2.6-2.5,2.9l1.4,3.6H195.5z M195.1,184.2c0.5,0,0.9,0,1.2-0.2c0.3-0.2,0.5-0.5,0.5-0.9c0-0.3-0.1-0.5-0.3-0.6
			c-0.3-0.1-0.5-0.2-1.1-0.2h-0.9l-0.4,1.8H195.1z"/>
	</g>
	<g>
		<rect x="74.6" y="176.3" class="st0" width="124.8" height="1"/>
	</g>
</g>
</svg>
